<svg xmlns="http://www.w3.org/2000/svg" viewBox="0 0 416.96 144.03"><defs><style>.cls-1{fill:#ffffff;}.cls-2{fill:#009345;}</style></defs><title>Asset 1</title><g id="Layer_2" data-name="Layer 2"><g id="Layer_1-2" data-name="Layer 1"><g id="_Group_" data-name="&lt;Group&gt;"><path id="_Compound_Path_" data-name="&lt;Compound Path&gt;" class="cls-1" d="M116.22,20.14C103.06,6.78,83.94,0,59.37,0H0V144H59.57c24.74,0,43.86-6.57,56.8-19.51,13.24-13,19.95-30.6,19.95-52.22C136.31,51,129.54,33.46,116.22,20.14Zm-79.55,48H9.5V44.19H36.67Zm0,9.5v23.69H9.5V77.63Zm9.5-33.39H57.06c13.59,0,23.06,2.8,27.4,8.1,4.05,5,5.49,10.17,5.49,20s-1.46,15.31-5.57,20.64l-.1.14c-3.8,5.31-13.39,8.24-27,8.24H46.17ZM91.94,98.69C97.06,92,98.83,85.44,99.3,77.63h27.34a66.24,66.24,0,0,1-5.47,23.69H89.67A21.39,21.39,0,0,0,91.94,98.69Zm7.41-30.55C99,60,97.24,53,91.81,46.33a23.28,23.28,0,0,0-2-2.14h31.63a66.57,66.57,0,0,1,5.28,23.94Zm16.71-33.45H66.43v-25c18.68,1.11,32.81,6.72,43,17.11A58.69,58.69,0,0,1,116.06,34.69ZM56.93,9.5V34.69H9.5V9.5ZM9.5,110.83H56.93v23.69H9.5Zm56.93,23.49V110.83h49.23a55.84,55.84,0,0,1-6,6.94C99.73,127.71,85.2,133.25,66.43,134.32Z"/><path id="_Compound_Path_2" data-name="&lt;Compound Path&gt;" class="cls-1" d="M380,0l-41.5,46.23L297,0H260V144h43.47V82.74l20.3,28.09h29.41l20.3-28.09V144H417V0Zm27.48,42.7V67.26H373.29V42.7ZM383,76.76h24.47v23.51H383ZM384.22,9.5h23.24V33.2H362.94ZM343.39,55l11-12.28h9.37V67.26H314.51V42.7h8l11,12.28ZM299,67.26H269.5V42.7H305V67.26Zm-5,9.5v23.51H269.5V76.76ZM292.74,9.5,314,33.2H269.5V9.5Zm-23.24,125V109.78H294v24.75Zm41.37-57.76h22.85v24.56h-5.1Zm37.45,24.56h-5.1V76.76h22.85ZM383,134.53V109.78h24.47v24.75Z"/><g id="_Group_2" data-name="&lt;Group&gt;"><polygon id="_Path_" data-name="&lt;Path&gt;" class="cls-2" points="201.82 101.33 155.84 144.03 247.25 144.03 247.25 101.33 201.82 101.33"/><g id="_Group_3" data-name="&lt;Group&gt;"><path id="_Compound_Path_3" data-name="&lt;Compound Path&gt;" class="cls-1" d="M149.93,0V143.75l46.17-42.88V0ZM186.6,95.6l-27.17,24.6V107.9h8.41V103h-8.41V97.51h4.19V92.59h-4.19V87.13h8.41V82.2h-8.41V76.75h4.19V71.82h-4.19V66.36h8.41V61.44h-8.41V56h4.19V51.05h-4.19V45.6h8.41V40.67h-8.41V35.21h4.19V30.29h-4.19V24.83h8.41V19.9h-8.41V9.5H186.6Z"/></g></g></g></g></g></svg>
